<svg width="12" height="13" viewBox="0 0 12 13" fill="none" xmlns="http://www.w3.org/2000/svg">
<path d="M5.13203 4.01946C6.07763 4.01946 6.84419 3.26461 6.84419 2.33346C6.84419 1.40231 6.07763 0.647461 5.13203 0.647461C4.18642 0.647461 3.41986 1.40231 3.41986 2.33346C3.41986 3.26461 4.18642 4.01946 5.13203 4.01946Z" fill="#040D2E"/>
<path d="M7.80514 9.9801C7.59655 10.4704 7.26649 10.9014 6.84513 11.2338C6.42376 11.5661 5.92453 11.7891 5.39306 11.8825C4.86159 11.9758 4.31484 11.9365 3.80277 11.7682C3.29071 11.5998 2.82966 11.3077 2.46178 10.9187C2.09389 10.5296 1.8309 10.056 1.69684 9.541C1.56278 9.02605 1.56193 8.48622 1.69436 7.97086C1.82678 7.45549 2.08827 6.98103 2.45492 6.59084C2.82157 6.20064 3.28169 5.90716 3.79322 5.73722" stroke="#040D2E" stroke-width="1.5" stroke-linecap="round" stroke-linejoin="round"/>
<path d="M5.50458 4.01953L6.6166 8.04623L10.2156 7.99988L11.257 10.6824" stroke="#040D2E" stroke-width="1.5" stroke-linecap="round" stroke-linejoin="round"/>
<path d="M6.45776 5.35156H8.97678" stroke="#040D2E" stroke-width="1.5" stroke-linecap="round" stroke-linejoin="round"/>
</svg>
