<svg width="11" height="13" viewBox="0 0 11 13" fill="none" xmlns="http://www.w3.org/2000/svg">
<g clip-path="url(#clip0_2928_166)">
<path d="M1.22931 12.1815C1.23117 12.2665 1.26717 12.3475 1.32961 12.407C1.39204 12.4665 1.47592 12.4998 1.56328 12.4998H2.36625C2.45295 12.4998 2.53609 12.4663 2.59739 12.4066C2.65869 12.3469 2.69313 12.2659 2.69313 12.1815V11.0742H1.22931V12.1815Z" fill="#040D2E"/>
<path d="M8.49158 12.1815C8.49158 12.2659 8.52602 12.3469 8.58732 12.4066C8.64862 12.4663 8.73176 12.4998 8.81846 12.4998H9.62143C9.70879 12.4998 9.79267 12.4665 9.8551 12.407C9.91754 12.3475 9.95355 12.2665 9.95541 12.1815V11.0742H8.49158V12.1815Z" fill="#040D2E"/>
<path d="M10.9929 5.87007L10.7158 2.91506C10.6506 2.2591 10.3374 1.65014 9.83713 1.20639C9.33683 0.762641 8.68509 0.515757 8.0084 0.513675H3.03424C2.34159 0.512683 1.67367 0.764332 1.16205 1.21905C0.650422 1.67376 0.33219 2.29858 0.27003 2.97042L0.0142155 5.87007C0.0104796 5.91614 0.0104796 5.96242 0.0142155 6.00849V9.6763C0.0141987 10.0832 0.179203 10.4737 0.473311 10.7627C0.767419 11.0517 1.16683 11.2159 1.58463 11.2196H9.40117C9.82144 11.2196 10.2245 11.057 10.5217 10.7675C10.8188 10.4781 10.9858 10.0856 10.9858 9.6763V6.00849C10.9919 5.9626 10.9943 5.91632 10.9929 5.87007Z" fill="#5468FF"/>
<path d="M1.86174 2.91567C1.86174 2.73213 1.93661 2.55611 2.06987 2.42633C2.20313 2.29654 2.38387 2.22363 2.57233 2.22363H8.37078C8.55924 2.22363 8.73998 2.29654 8.87324 2.42633C9.00651 2.55611 9.08137 2.73213 9.08137 2.91567L9.29455 5.28938H1.64856L1.86174 2.91567Z" fill="white"/>
<path d="M1.95412 9.3792C1.81358 9.3792 1.67619 9.33861 1.55933 9.26257C1.44247 9.18653 1.3514 9.07845 1.29762 8.95199C1.24384 8.82554 1.22977 8.68639 1.25719 8.55215C1.2846 8.41791 1.35227 8.2946 1.45165 8.19781C1.55103 8.10103 1.67765 8.03512 1.81549 8.00841C1.95333 7.98171 2.09621 7.99542 2.22606 8.0478C2.3559 8.10018 2.46687 8.18888 2.54495 8.30268C2.62303 8.41649 2.66471 8.55028 2.66471 8.68716C2.66471 8.8707 2.58985 9.04672 2.45658 9.1765C2.32332 9.30629 2.14258 9.3792 1.95412 9.3792Z" fill="#FFC42D"/>
<path d="M9.25192 9.48955C9.06345 9.48955 8.88271 9.41664 8.74945 9.28686C8.61619 9.15707 8.54132 8.98105 8.54132 8.79751C8.54132 8.61397 8.61619 8.43795 8.74945 8.30816C8.88271 8.17838 9.06345 8.10547 9.25192 8.10547C9.44038 8.10547 9.62112 8.17838 9.75438 8.30816C9.88764 8.43795 9.96251 8.61397 9.96251 8.79751C9.96251 8.98105 9.88764 9.15707 9.75438 9.28686C9.62112 9.41664 9.44038 9.48955 9.25192 9.48955Z" fill="#FFC42D"/>
</g>
<defs>
<clipPath id="clip0_2928_166">
<rect width="11" height="12" fill="white" transform="translate(0 0.5)"/>
</clipPath>
</defs>
</svg>
